<svg version="1.1" xmlns="http://www.w3.org/2000/svg" viewBox="0 0 1049 627.9769895369095" width="1049" height="627.9769895369095" filter="invert(93%) hue-rotate(180deg)">
  <!-- svg-source:excalidraw -->
  
  <defs>
    <style class="style-fonts">
      @font-face {
        font-family: "Virgil";
        src: url("https://excalidraw.com/Virgil.woff2");
      }
      @font-face {
        font-family: "Cascadia";
        src: url("https://excalidraw.com/Cascadia.woff2");
      }
      @font-face {
        font-family: "Assistant";
        src: url("https://excalidraw.com/Assistant-Regular.woff2");
      }
    </style>
    
  </defs>
  <rect x="0" y="0" width="1049" height="627.9769895369095" fill="#ffffff"></rect><g stroke-linecap="round" transform="translate(10 96.18432623174982) rotate(0 159.5 217.5)"><path d="M32 0 C134.9 -1.33, 235.23 -2.62, 287 0 M32 0 C129.97 0.64, 228.96 1.21, 287 0 M287 0 C308.03 1.73, 318.61 10.96, 319 32 M287 0 C307.87 -0.4, 319.81 8.39, 319 32 M319 32 C318.16 153.9, 317.57 278.32, 319 403 M319 32 C319.04 146.66, 319.36 262.15, 319 403 M319 403 C320.19 424.07, 309.2 436.82, 287 435 M319 403 C318.02 423.44, 306.1 437.1, 287 435 M287 435 C193.39 436.69, 98.83 434.69, 32 435 M287 435 C233.14 435.15, 178.28 433.96, 32 435 M32 435 C8.99 436.92, -1.45 425.63, 0 403 M32 435 C12.78 435.93, -2.06 424.3, 0 403 M0 403 C-1.72 315.96, -0.49 227.68, 0 32 M0 403 C1.36 305.98, 2.35 209.68, 0 32 M0 32 C1.89 9.3, 9.53 -0.92, 32 0 M0 32 C1.05 8.49, 9.72 0.93, 32 0" stroke="#1e1e1e" stroke-width="2" fill="none"></path></g><g stroke-linecap="round" transform="translate(30 156.18432623174982) rotate(0 58 153.5)"><path d="M29 0 C41.58 2.09, 56.68 -0.1, 87 0 M29 0 C42.92 0.1, 56.09 0.37, 87 0 M87 0 C107.22 -1.28, 116.77 11.65, 116 29 M87 0 C105.07 -0.49, 117.73 9.67, 116 29 M116 29 C113.7 97.03, 115.25 167.35, 116 278 M116 29 C117.4 120.7, 117.51 213.21, 116 278 M116 278 C117.92 295.36, 105.51 306.71, 87 307 M116 278 C114.88 295.41, 106.92 308.62, 87 307 M87 307 C66.75 308.65, 43.36 308.92, 29 307 M87 307 C70.41 306.93, 53.08 306.22, 29 307 M29 307 C7.87 308.93, 0.71 296.28, 0 278 M29 307 C10.63 304.8, 0.46 296.12, 0 278 M0 278 C1.15 208.83, -0.93 139.85, 0 29 M0 278 C0.46 221.02, -0.16 166.22, 0 29 M0 29 C-0.04 7.87, 11.39 0.39, 29 0 M0 29 C-2.12 7.56, 11.67 -1.96, 29 0" stroke="#1e1e1e" stroke-width="2" fill="none"></path></g><g transform="translate(32 119.18432623174982) rotate(0 61.56993103027344 12.5)"><text x="0" y="0" font-family="Virgil, Segoe UI Emoji" font-size="20px" fill="#1e1e1e" text-anchor="start" style="white-space: pre;" direction="ltr" dominant-baseline="text-before-edge">Memory Heap</text></g><g stroke-linecap="round" transform="translate(159 156.18432623174982) rotate(0 76.5 153.5)"><path d="M32 0 C57.1 -0.62, 83.81 0.48, 121 0 M32 0 C64.62 -0.08, 96.35 0.57, 121 0 M121 0 C142.33 -0.07, 153.33 12.3, 153 32 M121 0 C141.22 0.3, 151.03 10.65, 153 32 M153 32 C152.27 111.66, 149.92 193.08, 153 275 M153 32 C151.73 119.7, 150.84 206.68, 153 275 M153 275 C153.69 298.13, 141.39 306.06, 121 307 M153 275 C154.2 295.65, 141.23 308.69, 121 307 M121 307 C100.32 306.27, 78.08 307.27, 32 307 M121 307 C92.67 307.83, 63.06 306.78, 32 307 M32 307 C12.05 306.4, 1.16 297.87, 0 275 M32 307 C12.34 308.71, -0.08 294.35, 0 275 M0 275 C1.79 213.86, 0.63 153.23, 0 32 M0 275 C-0.87 220.97, -0.16 168.24, 0 32 M0 32 C1.42 12.62, 11.27 1.04, 32 0 M0 32 C0.62 11.31, 12.1 -0.18, 32 0" stroke="#1e1e1e" stroke-width="2" fill="none"></path></g><g transform="translate(189 129.18432623174982) rotate(0 50.23994445800781 12.5)"><text x="0" y="0" font-family="Virgil, Segoe UI Emoji" font-size="20px" fill="#1e1e1e" text-anchor="start" style="white-space: pre;" direction="ltr" dominant-baseline="text-before-edge">call Stack</text></g><g stroke-linecap="round" transform="translate(748 74.18432623174982) rotate(0 145.5 159)"><path d="M32 0 C118.31 0.85, 207.76 1.6, 259 0 M32 0 C117.59 -2.45, 204.6 -1.18, 259 0 M259 0 C280.17 0.33, 291.63 10.79, 291 32 M259 0 C279.65 1.93, 289.71 8.53, 291 32 M291 32 C291.38 91.71, 291.59 149.93, 291 286 M291 32 C291.56 84.94, 291.71 137.05, 291 286 M291 286 C290.83 306.03, 281.56 316.94, 259 318 M291 286 C289.51 306.77, 280.17 319.75, 259 318 M259 318 C181.36 317.22, 101.21 320.15, 32 318 M259 318 C192.61 318.71, 126.54 319.32, 32 318 M32 318 C11.81 318.97, -0.31 307.14, 0 286 M32 318 C12.73 318.5, -0.16 306.18, 0 286 M0 286 C-1.61 198.12, -0.71 111.54, 0 32 M0 286 C-0.41 228.46, -1.27 169.62, 0 32 M0 32 C-0.86 10.4, 11.75 1.68, 32 0 M0 32 C0.85 12.38, 12.14 -0.71, 32 0" stroke="#1e1e1e" stroke-width="2" fill="none"></path></g><g transform="translate(778 137.18432623174982) rotate(0 64.14993286132812 50)"><text x="0" y="0" font-family="Virgil, Segoe UI Emoji" font-size="20px" fill="#1e1e1e" text-anchor="start" style="white-space: pre;" direction="ltr" dominant-baseline="text-before-edge">DOM API </text><text x="0" y="25" font-family="Virgil, Segoe UI Emoji" font-size="20px" fill="#1e1e1e" text-anchor="start" style="white-space: pre;" direction="ltr" dominant-baseline="text-before-edge">setTimeout()</text><text x="0" y="50" font-family="Virgil, Segoe UI Emoji" font-size="20px" fill="#1e1e1e" text-anchor="start" style="white-space: pre;" direction="ltr" dominant-baseline="text-before-edge">setInterval()</text><text x="0" y="75" font-family="Virgil, Segoe UI Emoji" font-size="20px" fill="#1e1e1e" text-anchor="start" style="white-space: pre;" direction="ltr" dominant-baseline="text-before-edge">FetchAPI()</text></g><g stroke-linecap="round" transform="translate(430 548.1843262317498) rotate(0 241.5 33)"><path d="M16.5 0 C127.33 -2.03, 236.82 -1.31, 466.5 0 M16.5 0 C166.07 -0.08, 315.67 0.01, 466.5 0 M466.5 0 C476.19 -1.37, 482.13 4.44, 483 16.5 M466.5 0 C478.01 0.33, 480.83 7.15, 483 16.5 M483 16.5 C483.33 22.7, 482.92 29.98, 483 49.5 M483 16.5 C483.01 25.97, 483.25 36.69, 483 49.5 M483 49.5 C483.09 62.02, 478.64 66.86, 466.5 66 M483 49.5 C481.17 60.42, 475.61 65.06, 466.5 66 M466.5 66 C349.01 66.6, 229.56 66.19, 16.5 66 M466.5 66 C302.46 64.66, 139.17 64.26, 16.5 66 M16.5 66 C6.66 65.35, -1.44 60.04, 0 49.5 M16.5 66 C4.84 64.23, 0.28 60.74, 0 49.5 M0 49.5 C-1.58 38.55, -0.12 26.95, 0 16.5 M0 49.5 C-0.01 41.78, -0.04 34.6, 0 16.5 M0 16.5 C-0.99 6.64, 7.37 0.01, 16.5 0 M0 16.5 C-1.09 5.8, 3.33 1.77, 16.5 0" stroke="#1e1e1e" stroke-width="2" fill="none"></path></g><g stroke-linecap="round"><g transform="translate(895 155.18432623174982) rotate(0 25.5 -1)"><path d="M-0.61 -0.47 C3.78 -0.9, 18.23 -2.65, 26.93 -2.42 C35.63 -2.2, 47.75 0.67, 51.57 0.88 M1.28 -1.76 C5.44 -2.03, 17.64 -1.23, 25.94 -1.11 C34.25 -0.98, 47.18 -1.07, 51.11 -0.99" stroke="#1e1e1e" stroke-width="2" fill="none"></path></g></g><mask></mask><g stroke-linecap="round"><g transform="translate(943 212.18432623174982) rotate(0 0 -29)"><path d="M-1.16 -0.7 C-1.23 -10.26, 0.38 -48.1, 0.63 -57.82 M0.43 1.54 C0.16 -7.75, 0.12 -46.22, 0.01 -56.18" stroke="#1e1e1e" stroke-width="2" fill="none"></path></g></g><mask></mask><g stroke-linecap="round"><g transform="translate(897 214.18432623174982) rotate(0 22 0)"><path d="M-0.16 0.14 C7.06 0.17, 36.56 0.41, 43.86 0.44 M0.76 -0.26 C7.86 -0.4, 36.02 -0.25, 43.35 -0.31" stroke="#1e1e1e" stroke-width="2" fill="none"></path></g></g><mask></mask><g stroke-linecap="round"><g transform="translate(945 179.18432623174982) rotate(0 34.5 -0.5)"><path d="M-0.59 0.62 C5.24 0.59, 23.91 -0.9, 35.49 -1.17 C47.07 -1.44, 63.12 -1.07, 68.87 -1.02 M1.29 -0.1 C6.97 0.15, 23.68 0.3, 34.8 0.28 C45.92 0.25, 62.04 -0.15, 68.03 -0.24" stroke="#1e1e1e" stroke-width="2" fill="none"></path></g></g><mask></mask><g transform="translate(958 227.18432623174982) rotate(0 40.299949645996094 37.5)"><text x="0" y="0" font-family="Virgil, Segoe UI Emoji" font-size="20px" fill="#1e1e1e" text-anchor="start" style="white-space: pre;" direction="ltr" dominant-baseline="text-before-edge">Register</text><text x="0" y="25" font-family="Virgil, Segoe UI Emoji" font-size="20px" fill="#1e1e1e" text-anchor="start" style="white-space: pre;" direction="ltr" dominant-baseline="text-before-edge">for call</text><text x="0" y="50" font-family="Virgil, Segoe UI Emoji" font-size="20px" fill="#1e1e1e" text-anchor="start" style="white-space: pre;" direction="ltr" dominant-baseline="text-before-edge">stack</text></g><g stroke-linecap="round"><g transform="translate(1005 306.1843262317498) rotate(0 -38.5 138)"><path d="M0.7 -0.69 C-0.07 40.85, 8.03 203.83, -5.11 249.81 C-18.24 295.78, -66.11 270.98, -78.1 275.17 M-0.39 1.56 C-1.28 43.15, 6.45 204.97, -6.11 250.72 C-18.68 296.47, -64 271.93, -75.79 276.05" stroke="#1e1e1e" stroke-width="2" fill="none"></path></g><g transform="translate(1005 306.1843262317498) rotate(0 -38.5 138)"><path d="M-51.72 269.3 C-59.03 271, -66.06 271.07, -75.79 276.05 M-51.72 269.3 C-56.84 271.15, -63.43 273, -75.79 276.05" stroke="#1e1e1e" stroke-width="2" fill="none"></path></g><g transform="translate(1005 306.1843262317498) rotate(0 -38.5 138)"><path d="M-53.01 286.35 C-60.07 283.65, -66.77 279.34, -75.79 276.05 M-53.01 286.35 C-57.82 284.28, -64.11 282.2, -75.79 276.05" stroke="#1e1e1e" stroke-width="2" fill="none"></path></g></g><mask></mask><g stroke-linecap="round"><g transform="translate(472 548.1843262317498) rotate(0 0 33.5)"><path d="M-0.84 0.94 C-0.76 11.77, 0.1 54.97, 0.22 65.96 M0.91 0.39 C0.88 11.25, -0.3 55.66, -0.61 66.95" stroke="#1e1e1e" stroke-width="2" fill="none"></path></g></g><mask></mask><g stroke-linecap="round"><g transform="translate(520 549.1843262317498) rotate(0 0 34)"><path d="M-0.73 0.27 C-0.68 11.47, 0.61 56.36, 0.93 67.51 M1.08 -0.64 C1.01 10.7, 0.48 57.35, 0.47 68.79" stroke="#1e1e1e" stroke-width="2" fill="none"></path></g></g><mask></mask><g stroke-linecap="round"><g transform="translate(566 547.1843262317498) rotate(0 0 31)"><path d="M-0.68 0.15 C-0.69 10.52, -0.83 52.59, -0.76 63.05 M1.16 -0.82 C1.61 9.17, 1.95 51.17, 1.55 61.47" stroke="#1e1e1e" stroke-width="2" fill="none"></path></g></g><mask></mask><g stroke-linecap="round"><g transform="translate(615 546.1843262317498) rotate(0 0 33.5)"><path d="M0.27 1.09 C0.58 12.45, 1.19 56.41, 1.18 67.3 M-1.05 0.62 C-0.74 11.67, 0.75 54.2, 0.86 65.33" stroke="#1e1e1e" stroke-width="2" fill="none"></path></g></g><mask></mask><g stroke-linecap="round"><g transform="translate(431 587.1843262317498) rotate(0 -109.5 -57.5)"><path d="M0.01 -0.08 C-33.4 -2.35, -163.23 6.09, -199.67 -12.9 C-236.11 -31.9, -215.46 -96.9, -218.63 -114.05 M-1.44 -1.17 C-34.52 -3.37, -161.01 7.28, -197.31 -11.84 C-233.6 -30.96, -215.7 -98.67, -219.19 -115.89" stroke="#1e1e1e" stroke-width="2" fill="none"></path></g><g transform="translate(431 587.1843262317498) rotate(0 -109.5 -57.5)"><path d="M-211.17 -92.21 C-214.37 -101.97, -218.67 -108.87, -219.19 -115.89 M-211.17 -92.21 C-214.31 -100.41, -216.53 -109.84, -219.19 -115.89" stroke="#1e1e1e" stroke-width="2" fill="none"></path></g><g transform="translate(431 587.1843262317498) rotate(0 -109.5 -57.5)"><path d="M-228.27 -92.59 C-225.23 -102.21, -223.29 -108.98, -219.19 -115.89 M-228.27 -92.59 C-224.92 -100.53, -220.65 -109.82, -219.19 -115.89" stroke="#1e1e1e" stroke-width="2" fill="none"></path></g></g><mask></mask><g stroke-linecap="round"><g transform="translate(764 154.18432623174982) rotate(0 -270.5 -71.5)"><path d="M0.9 0.05 C-77.35 -23.69, -378.93 -136.01, -469.17 -142.21 C-559.4 -148.42, -528.52 -55.05, -540.5 -37.17 M-0.09 -0.97 C-78.53 -25.07, -380.05 -138.01, -470.2 -143.92 C-560.36 -149.84, -529.24 -54.29, -541.01 -36.46" stroke="#1e1e1e" stroke-width="2" fill="none"></path></g><g transform="translate(764 154.18432623174982) rotate(0 -270.5 -71.5)"><path d="M-547.01 -60.73 C-544.92 -53.15, -541.73 -44.13, -541.01 -36.46 M-547.01 -60.73 C-546.23 -55.44, -545 -51.89, -541.01 -36.46" stroke="#1e1e1e" stroke-width="2" fill="none"></path></g><g transform="translate(764 154.18432623174982) rotate(0 -270.5 -71.5)"><path d="M-530.01 -58.91 C-533.46 -51.8, -535.82 -43.37, -541.01 -36.46 M-530.01 -58.91 C-532.67 -53.84, -534.89 -50.66, -541.01 -36.46" stroke="#1e1e1e" stroke-width="2" fill="none"></path></g></g><mask></mask><g stroke-linecap="round" transform="translate(547 408.1843262317498) rotate(0 122 23.5)"><path d="M11.75 0 C76 -1.45, 141.4 -2.88, 232.25 0 M11.75 0 C57.17 1.48, 103.3 1.7, 232.25 0 M232.25 0 C241 1.35, 243.83 5.73, 244 11.75 M232.25 0 C238.82 -0.26, 242.77 5.05, 244 11.75 M244 11.75 C245.99 18.85, 243.48 22.57, 244 35.25 M244 11.75 C244.87 20.77, 243.5 28.54, 244 35.25 M244 35.25 C242.51 44.67, 240.28 46.23, 232.25 47 M244 35.25 C244.37 43.44, 238.3 45.46, 232.25 47 M232.25 47 C161.46 48.45, 89.74 46.43, 11.75 47 M232.25 47 C157.07 48.66, 82.77 49.04, 11.75 47 M11.75 47 C5 46.81, -0.7 43.81, 0 35.25 M11.75 47 C4.21 46.19, -2.09 43.68, 0 35.25 M0 35.25 C-1.57 29.74, 1.3 21.9, 0 11.75 M0 35.25 C-0.7 28.5, -0.51 19.74, 0 11.75 M0 11.75 C-0.12 3.66, 4.91 -0.46, 11.75 0 M0 11.75 C0.5 2.97, 5.17 -0.16, 11.75 0" stroke="#2f9e44" stroke-width="2" fill="none"></path></g><g stroke-linecap="round"><g transform="translate(835 234.18432623174982) rotate(0 -11.5 104.5)"><path d="M0.52 0.34 C1.91 31.9, 12.7 155.26, 7.27 190.13 C1.83 225, -25.54 206.51, -32.11 209.55 M-0.66 -0.52 C1.21 31.09, 14.45 156.54, 9.59 191.21 C4.74 225.88, -22.78 204.5, -29.8 207.49" stroke="#2f9e44" stroke-width="2" fill="none"></path></g><g transform="translate(835 234.18432623174982) rotate(0 -11.5 104.5)"><path d="M-8.7 203.44 C-12.55 203.16, -19.02 203.39, -29.8 207.49 M-8.7 203.44 C-17.01 205.31, -23.73 205.51, -29.8 207.49" stroke="#2f9e44" stroke-width="2" fill="none"></path></g><g transform="translate(835 234.18432623174982) rotate(0 -11.5 104.5)"><path d="M-11.04 217.95 C-14.49 214.6, -20.46 211.77, -29.8 207.49 M-11.04 217.95 C-18.4 214.81, -24.31 210, -29.8 207.49" stroke="#2f9e44" stroke-width="2" fill="none"></path></g></g><mask></mask><g stroke-linecap="round" transform="translate(772 211.18432623174982) rotate(0 59.5 15)"><path d="M7.5 0 C41.91 -1.14, 78.94 -1.93, 111.5 0 M7.5 0 C36.15 0.63, 67.5 0.01, 111.5 0 M111.5 0 C118.17 1.73, 120.51 1, 119 7.5 M111.5 0 C118.08 0.77, 117.34 1.09, 119 7.5 M119 7.5 C118.02 11.96, 118.47 14.36, 119 22.5 M119 7.5 C118.47 11, 118.27 14.24, 119 22.5 M119 22.5 C117.75 29.08, 115.15 31.22, 111.5 30 M119 22.5 C117.79 28.03, 115.74 28.97, 111.5 30 M111.5 30 C82.54 29.14, 52.35 31.04, 7.5 30 M111.5 30 C80.15 30.32, 48.9 30.28, 7.5 30 M7.5 30 C3.17 29.67, -1.37 28.08, 0 22.5 M7.5 30 C3.73 30.92, -0.98 29.03, 0 22.5 M0 22.5 C0.81 15.52, 0.11 11.63, 0 7.5 M0 22.5 C0.36 17.49, 0.44 13.5, 0 7.5 M0 7.5 C1.05 1.29, 2.88 -1.53, 7.5 0 M0 7.5 C1.93 2.48, 0.92 -0.62, 7.5 0" stroke="#2f9e44" stroke-width="2" fill="none"></path></g><g stroke-linecap="round"><g transform="translate(579 407.1843262317498) rotate(0 0 23.5)"><path d="M-0.26 0.26 C-0.18 8.11, 0.24 39.48, 0.23 47.29 M0.61 -0.08 C0.66 7.59, -0.12 38.5, -0.09 46.47" stroke="#2f9e44" stroke-width="2" fill="none"></path></g></g><mask></mask><g stroke-linecap="round"><g transform="translate(607 408.1843262317498) rotate(0 0 23)"><path d="M-0.09 -0.01 C-0.2 7.58, -0.34 37.99, -0.27 45.59 M-0.81 -0.49 C-0.77 7.15, 0.67 38.33, 0.83 46.08" stroke="#2f9e44" stroke-width="2" fill="none"></path></g></g><mask></mask><g stroke-linecap="round"><g transform="translate(634 413.1843262317498) rotate(0 0 21)"><path d="M0.03 0 C0.09 6.91, 0.17 34.69, 0.13 41.7 M-0.61 -0.47 C-0.6 6.47, -0.22 35.05, -0.24 42.24" stroke="#2f9e44" stroke-width="2" fill="none"></path></g></g><mask></mask><g stroke-linecap="round"><g transform="translate(536 429.1843262317498) rotate(0 -149.5 41.5)"><path d="M-0.45 0.35 C-45.98 14, -222.39 73.35, -272.2 82.32 C-322 91.28, -294.94 58.64, -299.27 54.12 M1.52 -0.52 C-43.76 13.25, -219.83 74.25, -270.11 83.5 C-320.39 92.74, -295.61 59.49, -300.18 54.97" stroke="#2f9e44" stroke-width="2" fill="none"></path></g><g transform="translate(536 429.1843262317498) rotate(0 -149.5 41.5)"><path d="M-295.3 74.16 C-296.66 64.81, -300.23 58.98, -300.18 54.97 M-295.3 74.16 C-297.49 69.91, -297.06 65.95, -300.18 54.97" stroke="#2f9e44" stroke-width="2" fill="none"></path></g><g transform="translate(536 429.1843262317498) rotate(0 -149.5 41.5)"><path d="M-308.77 72.81 C-304.97 64.03, -303.37 58.72, -300.18 54.97 M-308.77 72.81 C-307.91 68.84, -304.43 65.19, -300.18 54.97" stroke="#2f9e44" stroke-width="2" fill="none"></path></g></g><mask></mask><g transform="translate(374.1374385810923 435.2862841316502) rotate(340.1449903235162 34.86187253312204 12.89653699951188)"><text x="0" y="0" font-family="Virgil, Segoe UI Emoji" font-size="20.634459199219005px" fill="#2f9e44" text-anchor="start" style="white-space: pre;" direction="ltr" dominant-baseline="text-before-edge">priority</text></g><g stroke-linecap="round"><g transform="translate(160 411.1843262317498) rotate(0 73.5 -0.5)"><path d="M-0.25 -0.2 C24.15 -0.62, 122.9 -1.28, 147.56 -1.58 M1.82 -1.36 C26.01 -1.7, 122.66 -0.37, 146.91 -0.34" stroke="#1e1e1e" stroke-width="2" fill="none"></path></g></g><mask></mask><g stroke-linecap="round"><g transform="translate(158 356.1843262317498) rotate(0 76 0)"><path d="M-0.54 -0.8 C24.58 -0.9, 125.95 0.15, 151.36 0.25 M1.37 1.4 C26.84 0.84, 128.77 -1.68, 153.73 -1.73" stroke="#1e1e1e" stroke-width="2" fill="none"></path></g></g><mask></mask><g stroke-linecap="round"><g transform="translate(160 297.1843262317498) rotate(0 72.5 0)"><path d="M-0.52 0.74 C23.82 0.92, 120.71 0.03, 144.99 -0.08 M1.4 0.09 C25.68 0.56, 120.2 1.19, 144.04 1.42" stroke="#1e1e1e" stroke-width="2" fill="none"></path></g></g><mask></mask><g stroke-linecap="round"><g transform="translate(1013 178.18432623174982) rotate(0 0 23)"><path d="M-0.03 0.05 C0.01 7.68, -0.09 38.03, -0.1 45.77 M-0.71 -0.4 C-0.73 7.3, -0.63 38.67, -0.58 46.34" stroke="#1e1e1e" stroke-width="2" fill="none"></path></g><g transform="translate(1013 178.18432623174982) rotate(0 0 23)"><path d="M-8.54 24.76 C-6.53 29.79, -5.13 35.05, -0.58 46.34 M-8.54 24.76 C-5.23 33.06, -2.88 40.81, -0.58 46.34" stroke="#1e1e1e" stroke-width="2" fill="none"></path></g><g transform="translate(1013 178.18432623174982) rotate(0 0 23)"><path d="M7.2 24.7 C5.4 29.74, 3.01 35.01, -0.58 46.34 M7.2 24.7 C4.49 33.04, 0.84 40.82, -0.58 46.34" stroke="#1e1e1e" stroke-width="2" fill="none"></path></g></g><mask></mask></svg>